<svg height="512pt" viewBox="0 -4 512.00036 512" width="512pt" xmlns="http://www.w3.org/2000/svg"><path d="m473.351562 155.074219-58.855468 118.03125-54.292969 108.878906-40.941406 82.113281c-26.03125 52.195313-100.5 52.195313-126.53125 0 0 0-26.972657-54.089844-58.347657-117.007812-18.140624-36.382813-37.757812-75.722656-54.480468-109.273438-23.085938-46.289062-40.65625-81.523437-41.246094-82.710937-.753906-1.511719 67.742188-21.273438 73.957031-22.671875 24.808594-5.574219 49.949219-9.679688 75.195313-12.761719 46.515625-5.6875 90.5-5.636719 136.808594.054687 24.53125 3.007813 48.957031 6.980469 73.085937 12.324219 6.359375 1.417969 76.40625 21.503907 75.648437 23.023438zm0 0" fill="#ffcf86"/><path d="m473.351562 155.078125-58.855468 118.03125-54.292969 108.878906-40.941406 82.113281c-20.21875 40.550782-69.671875 49.597657-102.941407 27.136719 29.667969 6.472657 62.960938-6.019531 78.648438-37.480469l40.941406-82.113281 54.292969-108.878906 57.96875-116.25c14.074219 4.25 25.492187 7.941406 25.179687 8.5625zm0 0" fill="#ffc265"/><g fill="#ea4444"><path d="m414.496094 273.105469-54.292969 108.878906c-26.691406-6.972656-46.382813-31.253906-46.382813-60.128906 0-34.324219 27.820313-62.144531 62.144532-62.144531 14.5625 0 27.941406 5.007812 38.53125 13.394531zm0 0"/><path d="m179.730469 287.242188c0 28.5-19.1875 52.527343-45.351563 59.847656-18.140625-36.382813-37.757812-75.722656-54.480468-109.273438 10.457031-7.984375 23.515624-12.730468 37.683593-12.730468 34.328125 0 62.148438 27.832031 62.148438 62.15625zm0 0"/><path d="m291.121094 406.949219c0 18.519531-15.011719 33.53125-33.527344 33.53125-18.519531 0-33.53125-15.011719-33.53125-33.53125 0-18.515625 15.011719-33.527344 33.53125-33.527344 18.515625 0 33.527344 15.011719 33.527344 33.527344zm0 0"/><path d="m275.699219 211.226562c0 21.703126-17.59375 39.296876-39.296875 39.296876-21.707032 0-39.300782-17.59375-39.300782-39.296876 0-21.703124 17.59375-39.300781 39.300782-39.300781 21.703125 0 39.296875 17.597657 39.296875 39.300781zm0 0"/></g><path d="m256 .0078125s-113.738281-.9101565-212.382812 38.2890625c-35.625 14.15625-52.898438 54.644531-38.589844 90.214844 13.339844 33.160156 49.703125 50.675781 83.984375 40.558593 45.980469-13.570312 110.941406-29.132812 166.988281-29.132812s121.007812 15.5625 166.988281 29.132812c34.28125 10.117188 70.644531-7.398437 83.984375-40.558593 14.308594-35.570313-2.960937-76.058594-38.589844-90.214844-98.644531-39.199219-212.382812-38.2890625-212.382812-38.2890625zm0 0" fill="#ffb541"/><path d="m512 102.648438c0 2.042968-.09375 4.097656-.277344 6.152343-.011718-.03125-.03125-.054687-.042968-.082031-6.582032-13.925781-22.960938-20.785156-37.058594-24.347656-17.117188-4.324219-33.96875-9.160156-51.304688-12.652344-35.210937-7.097656-70.933594-11.460938-106.691406-14.632812-16.355469-1.457032-32.785156-2.136719-49.207031-2.113282-32.460938.039063-64.867188 2.875-96.976563 7.585938-46.949218 6.890625-95.871094 13.546875-141 28.324218-10.835937 3.550782-22.519531 8.910157-29.113281 18.449219-2.925781-29.902343 13.964844-59.382812 43.292969-71.039062 98.644531-39.195313 212.378906-38.292969 212.378906-38.292969s113.734375-.902344 212.375 38.292969c27.132812 10.78125 43.625 36.835937 43.625 64.355469zm0 0" fill="#ffc265"/><path d="m414.496094 273.109375-54.292969 108.878906c-8.726563-2.273437-16.703125-6.414062-23.496094-11.945312l53.5-107.277344.628907-1.261719c8.769531 2.152344 16.804687 6.175782 23.660156 11.605469zm0 0" fill="#d93131"/><path d="m359.351562 203.472656c0 12.503906-10.140624 22.640625-22.644531 22.640625-12.507812 0-22.644531-10.136719-22.644531-22.640625 0-12.507812 10.136719-22.644531 22.644531-22.644531 12.503907 0 22.644531 10.136719 22.644531 22.644531zm0 0" fill="#945b44"/><path d="m254.355469 316.65625c0 12.507812-10.136719 22.644531-22.644531 22.644531-12.503907 0-22.644532-10.136719-22.644532-22.644531 0-12.503906 10.140625-22.644531 22.644532-22.644531 12.507812 0 22.644531 10.140625 22.644531 22.644531zm0 0" fill="#945b44"/><path d="m498.375 139.292969c-.320312-.863281-.679688-1.722657-1.085938-2.578125-6.21875-13.144532-21.679687-19.628906-35-22.992188-16.15625-4.078125-32.070312-8.644531-48.433593-11.941406-33.25-6.695312-66.976563-10.820312-100.746094-13.820312-15.445313-1.371094-30.953125-2.015626-46.460937-1.996094-30.652344.042968-61.25 2.714844-91.5625 7.164062-44.339844 6.511719-90.523438 12.792969-133.136719 26.75-12.609375 4.128906-26.425781 10.847656-30.957031 24.347656-3.765626 11.214844-1.621094 24.480469 7.285156 32.699219 13.949218 12.871094 37.90625 10.453125 54.53125 5.261719 17.347656-5.421875 37.226562-11.148438 58.335937-16.339844 11.765625-2.894531 23.519531 4.792969 25.507813 16.746094l6.527344 39.195312c2.984374 13.738282 16.546874 22.453126 30.285156 19.464844 13.738281-2.988281 22.453125-16.546875 19.464844-30.285156l-6.242188-37.5c-1.988281-11.941406 6.617188-23.050781 18.679688-24.113281 9.109374-.804688 18.109374-1.304688 26.914062-1.449219 60.402344-.964844 130.679688 14.691406 180.472656 28.515625 14.351563 3.984375 36.511719 9.027344 50.242188 1.136719 13.375-7.6875 20.746094-23.746094 15.378906-38.265625zm0 0" fill="#fbc700"/><path d="m482.996094 177.5625c-13.738282 7.894531-35.886719 2.84375-50.25-1.132812-49.792969-13.828126-120.066406-29.484376-180.46875-28.515626-8.796875.140626-17.808594.644532-26.914063 1.445313-12.0625 1.058594-20.664062 12.164063-18.675781 24.105469l6.238281 37.5c2.992188 13.746094-5.722656 27.308594-19.457031 30.289062-9.785156 2.128906-19.46875-1.667968-25.308594-8.992187 2.484375 3.113281 12.425782.65625 15.226563-.902344 4.238281-2.359375 7.8125-7.285156 9.011719-11.984375 3.527343-13.816406-1.628907-32.253906-4.011719-46.085938-1.035157-6.023437-2.027344-12.226562-.765625-18.207031 1.496094-7.0625 6.253906-12.230469 12.578125-15.429687 15.660156-7.929688 32.320312-7.070313 49.253906-7.097656 41.105469-.066407 82.21875 2.480468 122.382813 10.957031 20.089843 4.242187 41.660156 9.175781 61.375 14.9375 11.035156 3.222656 25.304687 5.050781 36.65625 1.542969 12.871093-3.976563 20.332031-16.316407 15.523437-29.316407-.3125-.871093-.675781-1.726562-1.082031-2.582031-1.636719-3.445312-3.902344-6.4375-6.601563-9.023438 8.265625 3.871094 15.710938 9.472657 19.578125 17.648438.40625.855469.769532 1.710938 1.089844 2.582031 5.367188 14.515625-2.007812 30.570313-15.378906 38.261719zm0 0" fill="#e9b900"/></svg>